<svg class="hallMapSvg"><g class="container seatsAreHidden"><g class="stage"><path fill="#D3D3D3" d="M956.2,776.5c0-56.8-50.2-102.8-112.1-102.8S732,719.8,732,776.5c0,38.3,22.9,71.7,56.8,89.4   c3.8,2,6.2,5.9,6.2,10.1v104.4c0,6.4,5.2,11.5,11.7,11.5h76c6.5,0,11.7-5.2,11.7-11.5v-105c0-4.2,2.3-8.1,6.1-10.1   C933.8,847.5,956.2,814.4,956.2,776.5z" class="stage p"></path></g><g class="decorations"><path fill="#939598" d="M769.2,787l3.8-5.4c2.3,2.4,6,4.5,10.5,4.5c3.9,0,5.8-1.8,5.8-3.7c0-5.9-19.1-1.8-19.1-14.3   c0-5.5,4.8-10.1,12.6-10.1c5.3,0,9.7,1.6,12.9,4.6l-3.9,5.2c-2.7-2.5-6.3-3.6-9.7-3.6c-3,0-4.7,1.3-4.7,3.3   c0,5.3,19.1,1.7,19.1,14.1c0,6-4.3,10.6-13.3,10.6C776.8,792.3,772.3,790.1,769.2,787z" class="decoration p"></path><path fill="#939598" d="M808.3,791.7v-26.9h-9.7v-6.2h26.5v6.2h-9.7v26.9H808.3z" class="decoration p"></path><path fill="#939598" d="M849.3,791.7l-2-5.6H833l-2.1,5.6h-8.1l12.8-33.1h8.9l12.8,33.1H849.3z M840.1,765.7l-5.2,14.2h10.3   L840.1,765.7z" class="decoration p"></path><path fill="#939598" d="M857.1,775.2c0-10.5,8-17.1,17.7-17.1c6.9,0,11.2,3.5,13.7,7.4l-5.9,3.2c-1.5-2.3-4.3-4.3-7.9-4.3   c-6,0-10.4,4.6-10.4,10.9s4.4,10.9,10.4,10.9c2.9,0,5.7-1.3,7.1-2.5v-4h-8.8v-6.1h15.8v12.7c-3.4,3.8-8.1,6.2-14.1,6.2   C865.1,792.3,857.1,785.6,857.1,775.2z" class="decoration p"></path><path fill="#939598" d="M894.6,791.7v-33.1H918v6.2h-16.4v7h16.1v6.2h-16.1v7.5H918v6.2H894.6z" class="decoration p"></path></g><g class="zone" z="ROYAL_1_"><g class="sections"><path fill="#F1F1F2" d="M843.3,620.4c-92.2,0-166.9,69.2-166.9,154.5c0,25.2,16.2,65.3,16.2,65.3c1,2.6,2.5,5.1,2.8,5     c0.3-0.1,2.8-0.1,5.5-0.1h42.8c2.8,0,3.9-2,2.6-4.4c0,0-20.9-38.2-20.9-63.7c0-63.3,53.4-114.6,119.2-114.6     S963.7,713.7,963.7,777c0,25.5-20.9,63.7-20.9,63.7c-1.3,2.4-0.2,4.4,2.6,4.4h40.9c2.8,0,5.1,0,5.2,0c0.1,0,0.5-0.1,0.5-0.1     c0,0,1-2.2,2-4.7c0,0,16.3-40.1,16.3-65.4C1010.2,689.6,935.5,620.4,843.3,620.4z" class="section p"></path></g><g class="seats"><path d="M958.9,828.9c-0.7,2.5,1.1,5.1,3.5,5.7l4.5,1.2c2.4,0.7,4.9-0.8,5.5-3.3l1.2-4.5c0.7-2.5-0.7-5-3.1-5.7    l-4.5-1.2c-2.4-0.7-5.3,0.7-5.9,3.2L958.9,828.9z" class="s p dummy" r="RA" p="18" sp="19" rp="1"></path></g><g class="sectionDecorations"><path fill="#FFFFFF" d="M843.3,620.4c-92.2,0-166.9,69.2-166.9,154.5c0,25.2,16.2,65.3,16.2,65.3c1,2.6,2.5,5.1,2.8,5     c0.3-0.1,2.8-0.1,5.5-0.1h42.8c2.8,0,3.9-2,2.6-4.4c0,0-20.9-38.2-20.9-63.7c0-63.3,53.4-114.6,119.2-114.6     S963.7,713.7,963.7,777c0,25.5-20.9,63.7-20.9,63.7c-1.3,2.4-0.2,4.4,2.6,4.4h40.9c2.8,0,5.1,0,5.2,0c0.1,0,0.5-0.1,0.5-0.1     c0,0,1-2.2,2-4.7c0,0,16.3-40.1,16.3-65.4C1010.2,689.6,935.5,620.4,843.3,620.4z" class="sectionDecoration p"></path><text transform="matrix(1 0 0 1 811.6245 651.9555)" fill="#808284" font-size="18px" class="sectionDecoration p">ROYAL</text></g></g><g class="zone" z="PLATINUM_1"><g class="sections"><path fill="#F1F1F2" d="M646,873.8c0,2.8-2.2,5-5,5h-98c-2.8,0-5-2.2-5-5V591.6c0-2.8,2.2-5,5-5h98c2.8,0,5,2.2,5,5V873.8z" class="section p"></path></g><g class="seats"><path d="M562,602.7c0,2-1.7,3.7-3.7,3.7h-4.6c-2,0-3.7-1.7-3.7-3.7v-4.6c0-2,1.7-3.7,3.7-3.7h4.6    c2,0,3.7,1.7,3.7,3.7V602.7z" class="s p dummy" r="F" p="20" sp="20" rp="6"></path></g><g class="sectionDecorations"><path fill="#FFFFFF" d="M646,873.8c0,2.8-2.2,5-5,5h-98c-2.8,0-5-2.2-5-5V591.6c0-2.8,2.2-5,5-5h98c2.8,0,5,2.2,5,5V873.8z" class="sectionDecoration p"></path><text transform="matrix(0 -1 1 0 597.0996 780.7441)" fill="#808284" font-size="18px" class="sectionDecoration p">PLATINUM 1</text></g></g><g class="zone" z="PLATINUM_2"><g class="sections"><path fill="#F1F1F2" d="M1144,873.8c0,2.8-2.2,5-5,5h-98c-2.8,0-5-2.2-5-5V591.6c0-2.8,2.2-5,5-5h98c2.8,0,5,2.2,5,5V873.8z" class="section p"></path></g><g class="seats"><path d="M1062,602.7c0,2-1.7,3.7-3.7,3.7h-4.6c-2,0-3.7-1.7-3.7-3.7v-4.6c0-2,1.7-3.7,3.7-3.7h4.6    c2,0,3.7,1.7,3.7,3.7V602.7z" class="s p dummy" r="A" p="20" sp="20" rp="1"></path></g><g class="sectionDecorations"><path fill="#FFFFFF" d="M1144,873.8c0,2.8-2.2,5-5,5h-98c-2.8,0-5-2.2-5-5V591.6c0-2.8,2.2-5,5-5h98c2.8,0,5,2.2,5,5V873.8z" class="sectionDecoration p"></path><text transform="matrix(0 -1 1 0 1095.0996 782.9854)" fill="#808284" font-size="18px" class="sectionDecoration p">PLATINUM 2</text></g></g><g class="zone" z="GOLD"><g class="sections"><path fill="#F1F1F2" d="M1162,573.7c0,2.8-2.2,5-5,5H529c-2.8,0-5-2.2-5-5V323.3c0-2.8,2.2-5,5-5h628c2.8,0,5,2.2,5,5V573.7z" class="section p"></path></g><g class="seats"><path d="M1016,564.3c0,1.7-1.4,3.1-3.1,3.1h-3.8c-1.7,0-3.1-1.4-3.1-3.1v-3.8c0-1.7,1.4-3.1,3.1-3.1h3.8    c1.7,0,3.1,1.4,3.1,3.1V564.3z" class="s p dummy" r="A" p="37" sp="39" rp="1"></path></g><g class="sectionDecorations"><path fill="#FFFFFF" d="M1162,573.7c0,2.8-2.2,5-5,5H529c-2.8,0-5-2.2-5-5V323.3c0-2.8,2.2-5,5-5h628c2.8,0,5,2.2,5,5V573.7z" class="sectionDecoration p"></path><text transform="matrix(1 0 0 1 818.936 453.9555)" fill="#808284" font-size="18px" class="sectionDecoration p">GOLD</text></g></g><g class="zone" z="SILVER"><g class="sections"><path fill="#F1F1F2" d="M1162,305.7c0,2.8-2.2,5-5,5H529c-2.8,0-5-2.2-5-5v-138c0-2.8,2.2-5,5-5h628c2.8,0,5,2.2,5,5V305.7z" class="section p"></path></g><g class="seats"><path d="M1016,292.3c0,1.7-1.4,3.1-3.1,3.1h-3.8c-1.7,0-3.1-1.4-3.1-3.1v-3.8c0-1.7,1.4-3.1,3.1-3.1h3.8    c1.7,0,3.1,1.4,3.1,3.1V292.3z" class="s p dummy" r="A" p="37" sp="39" rp="1"></path></g><g class="sectionDecorations"><path fill="#FFFFFF" d="M1162,305.7c0,2.8-2.2,5-5,5H529c-2.8,0-5-2.2-5-5v-138c0-2.8,2.2-5,5-5h628c2.8,0,5,2.2,5,5V305.7z" class="sectionDecoration p"></path><text transform="matrix(1 0 0 1 814.5981 243.9555)" fill="#808284" font-size="18px" class="sectionDecoration p">SILVER</text></g></g><g class="genericContainer"></g></g></svg>
